# xmcd
#
# Track frame offsets:
#   150
#   15561
#   29199
#   41736
#   54679
#   68075
#   81652
#   92016
#   103588
#   118121
#   132675
#   146664
#   158530
#   172896
#   188661
#   204033
#
# Disc length: 2991 seconds
#
# Revision: 0
# Processed by: cddbd v1.4PL0 Copyright (c) Steve Scherf et al.
# Submitted via: uFREEDB ActiveX Control 1.5
#
DISCID=df0bad10
DTITLE=Gilberto and Gimar - Seleção de ouro
DYEAR=1900
DGENRE=Country
TTITLE0=Quebrando tudo
TTITLE1=Nóis não vive sem muié
TTITLE2=Só to o pó
TTITLE3=Música da saudade
TTITLE4=Só mais uma vez
TTITLE5=Paixão
TTITLE6=Da boca pra fora
TTITLE7=Assino como x
TTITLE8=Saudade
TTITLE9=Trieste
TTITLE10=Capa de revista
TTITLE11=Fome de amor
TTITLE12=Palavras de amor
TTITLE13=Maria tha,tha,tha
TTITLE14=O trem das sete
TTITLE15=O mais importante é o verdadeiro amor
EXTD=
EXTT0=
EXTT1=
EXTT2=
EXTT3=
EXTT4=
EXTT5=
EXTT6=
EXTT7=
EXTT8=
EXTT9=
EXTT10=
EXTT11=
EXTT12=
EXTT13=
EXTT14=
EXTT15=
PLAYORDER=
